<svg width="29" height="31" viewBox="0 0 29 31" fill="none" xmlns="http://www.w3.org/2000/svg">
<ellipse cx="14.5" cy="14.5" rx="14.5" ry="14.5" fill="#8896BA"/>
<ellipse cx="14.5" cy="16.5" rx="14.5" ry="14.5" fill="white"/>
<circle cx="14.5" cy="15.5" r="14.5" fill="url(#paint0_linear)"/>
<path d="M16.7309 21.9253C17.8679 22.9865 19.7114 22.9865 20.8484 21.9253C21.9854 20.864 21.9854 19.1435 20.8484 18.0823L18.512 15.9017L21.1909 13.4014C22.2697 12.3945 22.2697 10.7621 21.1909 9.75517C20.1121 8.74828 18.363 8.74828 17.2842 9.75516L14.6053 12.2554L12.2691 10.0749C11.132 9.01371 9.28859 9.01371 8.15158 10.0749C7.01458 11.1361 7.01457 12.8567 8.15158 13.9179L10.4879 16.0984L7.8091 18.5986C6.7303 19.6055 6.7303 21.2379 7.8091 22.2448C8.88791 23.2517 10.637 23.2517 11.7158 22.2448L14.3946 19.7447L16.7309 21.9253Z" fill="#FFF7F7"/>
<path d="M17.0584 21.2087C18.1888 22.2638 20.0216 22.2638 21.152 21.2087C22.2824 20.1537 22.2824 18.4431 21.152 17.388L18.5935 15.0001L21.1522 12.612C22.2826 11.5569 22.2826 9.84635 21.1522 8.79129C20.0218 7.73624 18.189 7.73623 17.0586 8.79129L14.4999 11.1794L11.9414 8.79143C10.811 7.73637 8.97823 7.73637 7.84781 8.79143C6.7174 9.84649 6.7174 11.5571 7.84781 12.6121L10.4063 15.0001L7.848 17.3879C6.71759 18.4429 6.71759 20.1535 7.848 21.2086C8.97842 22.2636 10.8112 22.2636 11.9416 21.2086L14.4999 18.8208L17.0584 21.2087Z" fill="#455378"/>
<path d="M26.3636 13.98C26.3636 19.6928 21.0521 15.0144 14.5 15.0144C7.94788 15.0144 2.63635 19.6928 2.63635 13.98C2.63635 8.26732 7.94788 3.63623 14.5 3.63623C21.0521 3.63623 26.3636 8.26732 26.3636 13.98Z" fill="url(#paint1_radial)"/>
<defs>
<linearGradient id="paint0_linear" x1="14.5" y1="1" x2="14.5" y2="30" gradientUnits="userSpaceOnUse">
<stop stop-color="#B3CBE2"/>
<stop offset="0.479145" stop-color="#BED3E8"/>
<stop offset="1" stop-color="#E1E8EF"/>
</linearGradient>
<radialGradient id="paint1_radial" cx="0" cy="0" r="1" gradientUnits="userSpaceOnUse" gradientTransform="translate(14.5 10.3597) rotate(90) scale(13.9642 16.0159)">
<stop stop-color="white" stop-opacity="0.56"/>
<stop offset="1" stop-color="white" stop-opacity="0"/>
</radialGradient>
</defs>
</svg>
